<svg xmlns="http://www.w3.org/2000/svg" viewBox="0 0 144 84.05"><defs><style>.cls-1,.cls-2{fill:#e6e6e6;}.cls-2{opacity:0;}</style></defs><title>download</title><g id="图层_2" data-name="图层 2"><g id="图层_1-2" data-name="图层 1"><path class="cls-1" d="M75,.05a42,42,0,1,0,42,42A42,42,0,0,0,75,.05Zm0,76.13a34.13,34.13,0,1,1,34.12-34.13A34.12,34.12,0,0,1,75,76.18ZM90.17,39.43h-7.3V26.3a2.62,2.62,0,0,0-2.62-2.62H69.75a2.63,2.63,0,0,0-2.63,2.62V39.43h-7.3c-2.85,0-4,1.9-2.59,4.21l15.18,15c1.42,2.32,3.75,2.32,5.18,0l15.17-15C94.19,41.33,93,39.43,90.17,39.43Z"/><rect class="cls-2" width="144" height="84"/></g></g></svg>