<svg xmlns="http://www.w3.org/2000/svg" viewBox="0 0 77 61"><defs><style>.cls-1{fill:#f2f2f2;}.cls-2{fill:#37474f;}.cls-3{fill:#8cbcd6;}.cls-4{fill:#b3ddf5;}.cls-5{fill:#9ac9e3;}.cls-6{fill:#e57373;}.cls-7,.cls-9{fill:#ccc;}.cls-8{fill:#b0bec5;}.cls-9{opacity:0;}</style></defs><title>edit</title><g id="图层_2" data-name="图层 2"><g id="图层_1-2" data-name="图层 1"><polygon class="cls-1" points="41.5 48.2 40 54 45.8 52.5 41.5 48.2"/><polygon class="cls-2" points="40.7 51 40 54 43 53.3 40.7 51"/><path class="cls-3" d="M45,47H22a4,4,0,0,1-4-4V17a4,4,0,0,1,4-4H54a4,4,0,0,1,4,4V34A13,13,0,0,1,45,47Z"/><circle class="cls-4" cx="49" cy="22" r="3"/><polygon class="cls-5" points="34 22 23 38 45 38 34 22"/><polygon class="cls-4" points="45 28 37 38 53 38 45 28"/><path class="cls-6" d="M61.7,35.1l-2.8-2.8a1.21,1.21,0,0,0-1.6,0L56,33.6,60.4,38l1.3-1.3A1.21,1.21,0,0,0,61.7,35.1Z"/><rect class="cls-7" x="41.11" y="41.11" width="17.4" height="6.2" transform="translate(-16.67 48.17) rotate(-45)"/><rect class="cls-8" x="55.56" y="33.84" width="3.1" height="6.2" transform="translate(-9.39 51.2) rotate(-45)"/><rect class="cls-9" width="77" height="61"/></g></g></svg>