<svg xmlns="http://www.w3.org/2000/svg" viewBox="0 0 123 87"><defs><style>.cls-1,.cls-2{fill:#e6e6e6;}.cls-2{opacity:0;}</style></defs><title>trash</title><g id="图层_2" data-name="图层 2"><g id="图层_1-2" data-name="图层 1"><g id="图层_2-2" data-name="图层 2"><g id="图层_1-2-2" data-name="图层 1-2"><g id="Page-1"><g id="Icon-Set-Filled"><path id="trash" class="cls-1" d="M46.38,40.38a2.63,2.63,0,1,1,5.25,0v31.5a2.63,2.63,0,0,1-5.25,0Zm13.12,0a2.63,2.63,0,1,1,5.25,0v31.5a2.63,2.63,0,0,1-5.25,0Zm13.13,0a2.63,2.63,0,1,1,5.25,0v31.5a2.63,2.63,0,0,1-5.25,0ZM33.25,74.5A10.5,10.5,0,0,0,43.75,85H80.5A10.5,10.5,0,0,0,91,74.5v-42H33.25ZM70,11.5H54.25V8.88a2.63,2.63,0,0,1,2.63-2.63h10.5A2.63,2.63,0,0,1,70,8.88Zm21,0H75.25V6.25A5.25,5.25,0,0,0,70,1H54.25A5.25,5.25,0,0,0,49,6.25V11.5H33.25A5.25,5.25,0,0,0,28,16.75V22a5.25,5.25,0,0,0,5.25,5.25H91A5.25,5.25,0,0,0,96.25,22V16.75A5.25,5.25,0,0,0,91,11.5Z"/></g></g></g><rect class="cls-2" width="123" height="87"/></g></g></g></svg>