<svg xmlns="http://www.w3.org/2000/svg" viewBox="0 0 68.25 84"><defs><style>.cls-1{fill:#4d4d4d;}</style></defs><title>trashb</title><g id="图层_2" data-name="图层 2"><g id="图层_1-2" data-name="图层 1"><g id="图层_2-2" data-name="图层 2"><g id="图层_1-2-2" data-name="图层 1-2"><g id="Page-1"><g id="Icon-Set-Filled"><path id="trash" class="cls-1" d="M18.38,39.38a2.63,2.63,0,1,1,5.25,0v31.5a2.63,2.63,0,0,1-5.25,0Zm13.12,0a2.63,2.63,0,1,1,5.25,0v31.5a2.63,2.63,0,0,1-5.25,0Zm13.13,0a2.63,2.63,0,1,1,5.25,0v31.5a2.63,2.63,0,0,1-5.25,0ZM5.25,73.5A10.5,10.5,0,0,0,15.75,84H52.5A10.5,10.5,0,0,0,63,73.5v-42H5.25ZM42,10.5H26.25V7.88a2.63,2.63,0,0,1,2.63-2.63h10.5A2.63,2.63,0,0,1,42,7.88Zm21,0H47.25V5.25A5.25,5.25,0,0,0,42,0H26.25A5.25,5.25,0,0,0,21,5.25V10.5H5.25A5.25,5.25,0,0,0,0,15.75V21a5.25,5.25,0,0,0,5.25,5.25H63A5.25,5.25,0,0,0,68.25,21V15.75A5.25,5.25,0,0,0,63,10.5Z"/></g></g></g></g></g></g></svg>